<svg id="_Layer_" data-name="&lt;Layer&gt;" xmlns="http://www.w3.org/2000/svg" viewBox="0 0 176.56 88.5"><defs><style>.cls-1{fill:#ccc;}.cls-1,.cls-2,.cls-3,.cls-6,.cls-7{opacity:0.2;}.cls-2{fill:#c579d8;}.cls-3{fill:#4f8fed;}.cls-4,.cls-7{fill:#069;}.cls-5,.cls-8{fill:none;stroke-width:0.25px;}.cls-5{stroke:#300;}.cls-6{fill:#57cec8;}.cls-8{stroke:#069;stroke-miterlimit:10;}</style></defs><rect class="cls-1" x="14.25" y="22.19" width="54.03" height="54.24"/><rect class="cls-2" x="50.26" y="22.28" width="18.01" height="35.82"/><rect class="cls-3" x="14.3" y="40.25" width="18" height="36.19"/><path class="cls-4" d="M24.33,9.18v6.33a.55.55,0,0,0,.22.52,2.35,2.35,0,0,0,.8.13v.14H22.41v-.15a1.72,1.72,0,0,0,.82-.18c.13-.09.19-.29.19-.61V10.54a.91.91,0,0,0-.06-.38c0-.09-.13-.13-.27-.13a1.07,1.07,0,0,0-.35.07l-.41.16v-.14l1.92-1h.06Z" transform="translate(-0.32)"/><path class="cls-4" d="M39.39,16.18A36.81,36.81,0,0,0,42,13.28a3.1,3.1,0,0,0,.68-1.81,1.54,1.54,0,0,0-.42-1.17,1.37,1.37,0,0,0-1-.41,1.47,1.47,0,0,0-1.16.52,3.19,3.19,0,0,0-.47.88l-.22,0a2.74,2.74,0,0,1,.88-1.67,2.2,2.2,0,0,1,1.34-.46A1.88,1.88,0,0,1,43,9.67,1.84,1.84,0,0,1,43.59,11,2.73,2.73,0,0,1,43,12.67a35.05,35.05,0,0,1-2.56,2.82h2.39a1.51,1.51,0,0,0,.71-.12,1.69,1.69,0,0,0,.46-.58l.13.06-.58,1.45H39.39Z" transform="translate(-0.32)"/><path class="cls-4" d="M58.9,15.69a1.6,1.6,0,0,0,.8.3,1.25,1.25,0,0,0,1.09-.49,1.85,1.85,0,0,0,.35-1.07,1.71,1.71,0,0,0-.29-1,1.82,1.82,0,0,0-1.63-.72h-.13l-.15,0v-.14a4.42,4.42,0,0,0,1.31-.69,1.27,1.27,0,0,0,.48-1,1,1,0,0,0-.38-.87,1.32,1.32,0,0,0-.86-.29,1.42,1.42,0,0,0-1,.42,3,3,0,0,0-.51.71l-.17,0a2.41,2.41,0,0,1,.78-1.27,2,2,0,0,1,1.31-.47,1.67,1.67,0,0,1,1.24.44,1.39,1.39,0,0,1,.43,1,1.43,1.43,0,0,1-.36.93,3.08,3.08,0,0,1-.63.53,2.67,2.67,0,0,1,.8.5,1.85,1.85,0,0,1,.57,1.39,2.34,2.34,0,0,1-.78,1.74,3,3,0,0,1-2.21.76,1.54,1.54,0,0,1-.9-.19.51.51,0,0,1-.26-.41.5.5,0,0,1,.08-.26.32.32,0,0,1,.28-.12A1.62,1.62,0,0,1,58.9,15.69Z" transform="translate(-0.32)"/><path class="cls-4" d="M3.18,27.35v6.34a.54.54,0,0,0,.22.51,2.35,2.35,0,0,0,.8.13v.14H1.26v-.15a1.75,1.75,0,0,0,.82-.17.74.74,0,0,0,.19-.61V28.71a.94.94,0,0,0-.06-.38c0-.09-.13-.13-.27-.13a1.07,1.07,0,0,0-.35.07l-.41.16v-.14l1.92-1h.06S3.18,27.34,3.18,27.35Z" transform="translate(-0.32)"/><path class="cls-4" d="M.32,52.14a34.74,34.74,0,0,0,2.59-2.91,3.07,3.07,0,0,0,.68-1.8,1.56,1.56,0,0,0-.42-1.18,1.36,1.36,0,0,0-1-.4A1.44,1.44,0,0,0,1,46.37a3.19,3.19,0,0,0-.47.88l-.22,0a2.74,2.74,0,0,1,.88-1.66,2.21,2.21,0,0,1,1.34-.47A1.89,1.89,0,0,1,4,45.63,1.83,1.83,0,0,1,4.52,47a2.76,2.76,0,0,1-.59,1.65,35.05,35.05,0,0,1-2.56,2.82H3.76a1.51,1.51,0,0,0,.71-.12,1.65,1.65,0,0,0,.45-.59l.14.07-.58,1.45H.32Z" transform="translate(-0.32)"/><path class="cls-4" d="M1.59,70a1.56,1.56,0,0,0,.8.3,1.25,1.25,0,0,0,1.08-.49,1.79,1.79,0,0,0,.36-1.07,1.75,1.75,0,0,0-.29-1,1.85,1.85,0,0,0-1.64-.71H1.63v-.13a4.55,4.55,0,0,0,1.31-.69,1.28,1.28,0,0,0,.48-1A1,1,0,0,0,3,64.34a1.34,1.34,0,0,0-.86-.3,1.42,1.42,0,0,0-1,.42,3.63,3.63,0,0,0-.52.71l-.16,0a2.41,2.41,0,0,1,.78-1.27,1.94,1.94,0,0,1,1.31-.47,1.66,1.66,0,0,1,1.23.43,1.42,1.42,0,0,1,.44,1,1.39,1.39,0,0,1-.36.92,3.74,3.74,0,0,1-.63.54,2.67,2.67,0,0,1,.8.5,1.84,1.84,0,0,1,.57,1.39,2.34,2.34,0,0,1-.78,1.74,3,3,0,0,1-2.22.76,1.62,1.62,0,0,1-.9-.19.55.55,0,0,1-.26-.41.43.43,0,0,1,.09-.26.31.31,0,0,1,.28-.13A1.59,1.59,0,0,1,1.59,70Z" transform="translate(-0.32)"/><path d="M43.47,28.56A5,5,0,0,1,44,30.89a5.76,5.76,0,0,1-.33,2,2.17,2.17,0,0,1-2.11,1.72,2,2,0,0,1-1.69-.93,4.6,4.6,0,0,1-.71-2.7,5.19,5.19,0,0,1,.48-2.32,2.08,2.08,0,0,1,2-1.32A2,2,0,0,1,43.47,28.56Zm-.79,4.88A8,8,0,0,0,43,31a9.14,9.14,0,0,0-.17-2c-.21-.94-.62-1.41-1.21-1.41s-1,.49-1.21,1.45a9.36,9.36,0,0,0-.17,2A8.58,8.58,0,0,0,40.37,33c.23.88.64,1.33,1.25,1.33A1.07,1.07,0,0,0,42.68,33.44Z" transform="translate(-0.32)"/><path d="M61.71,28.56a5,5,0,0,1,.53,2.33,6,6,0,0,1-.32,2,2.18,2.18,0,0,1-2.11,1.72,2,2,0,0,1-1.69-.93,4.6,4.6,0,0,1-.71-2.7,5.33,5.33,0,0,1,.47-2.32,2.09,2.09,0,0,1,2-1.32A2,2,0,0,1,61.71,28.56Zm-.79,4.88A7.93,7.93,0,0,0,61.21,31,9.8,9.8,0,0,0,61,29c-.22-.94-.62-1.41-1.21-1.41s-1,.49-1.22,1.45a10,10,0,0,0-.17,2A7.93,7.93,0,0,0,58.62,33c.22.88.64,1.33,1.25,1.33A1.06,1.06,0,0,0,60.92,33.44Z" transform="translate(-0.32)"/><path d="M60.5,45.14v6.33q0,.41.21.51a2,2,0,0,0,.81.13v.15h-3V52.1a1.6,1.6,0,0,0,.82-.17.73.73,0,0,0,.2-.61V46.5a.75.75,0,0,0-.07-.38c0-.09-.13-.13-.27-.13a1.12,1.12,0,0,0-.35.07l-.4.16v-.15l1.91-1h.06Z" transform="translate(-0.32)"/><path d="M24.33,27.35v6.34a.54.54,0,0,0,.22.51,2.35,2.35,0,0,0,.8.13v.14H22.41v-.15a1.75,1.75,0,0,0,.82-.17.74.74,0,0,0,.19-.61V28.71a.94.94,0,0,0-.06-.38c0-.09-.13-.13-.27-.13a1.07,1.07,0,0,0-.35.07l-.41.16v-.14l1.92-1h.06S24.33,27.34,24.33,27.35Z" transform="translate(-0.32)"/><path d="M24.33,45.14v6.33c0,.27.08.44.22.51a1.93,1.93,0,0,0,.8.13v.15H22.41V52.1a1.63,1.63,0,0,0,.82-.17c.13-.09.19-.3.19-.61V46.5a.91.91,0,0,0-.06-.38c0-.09-.13-.13-.27-.13a1.07,1.07,0,0,0-.35.07l-.41.16v-.15l1.92-1h.06Z" transform="translate(-0.32)"/><path d="M43.47,46.35A5,5,0,0,1,44,48.68a5.7,5.7,0,0,1-.33,2,2.18,2.18,0,0,1-2.11,1.73,2,2,0,0,1-1.69-.93,4.63,4.63,0,0,1-.71-2.71,5.15,5.15,0,0,1,.48-2.31,2.08,2.08,0,0,1,2-1.32A2,2,0,0,1,43.47,46.35Zm-.79,4.87A7.87,7.87,0,0,0,43,48.8a9.08,9.08,0,0,0-.17-2c-.21-.94-.62-1.41-1.21-1.41s-1,.48-1.21,1.45a9.3,9.3,0,0,0-.17,2,8.58,8.58,0,0,0,.17,1.89c.23.88.64,1.32,1.25,1.32A1.07,1.07,0,0,0,42.68,51.22Z" transform="translate(-0.32)"/><path d="M24.33,63.5v6.33c0,.27.08.44.22.51a1.93,1.93,0,0,0,.8.13v.15H22.41v-.16a1.75,1.75,0,0,0,.82-.17c.13-.09.19-.3.19-.61V64.86a.91.91,0,0,0-.06-.38.27.27,0,0,0-.27-.14,1.13,1.13,0,0,0-.35.08l-.41.16v-.15l1.92-1h.06Z" transform="translate(-0.32)"/><path d="M43.47,64.7A5,5,0,0,1,44,67,5.7,5.7,0,0,1,43.67,69a2.18,2.18,0,0,1-2.11,1.73,2,2,0,0,1-1.69-.93,4.63,4.63,0,0,1-.71-2.71,5.12,5.12,0,0,1,.48-2.31,2.08,2.08,0,0,1,2-1.32A2,2,0,0,1,43.47,64.7Zm-.79,4.88A8,8,0,0,0,43,67.16a9.08,9.08,0,0,0-.17-2c-.21-.94-.62-1.41-1.21-1.41s-1,.48-1.21,1.45a9.3,9.3,0,0,0-.17,2,8.58,8.58,0,0,0,.17,1.89c.23.88.64,1.32,1.25,1.32A1.07,1.07,0,0,0,42.68,69.58Z" transform="translate(-0.32)"/><path d="M60.5,63.5v6.33q0,.4.21.51a2,2,0,0,0,.8.13v.15H58.57v-.16a1.72,1.72,0,0,0,.82-.17.73.73,0,0,0,.2-.61V64.86a.75.75,0,0,0-.07-.38.27.27,0,0,0-.27-.14,1.2,1.2,0,0,0-.35.08,3.7,3.7,0,0,0-.4.16v-.15l1.91-1h.06Z" transform="translate(-0.32)"/><line class="cls-5" x1="10.31" y1="17.69" x2="10.31" y2="80.97"/><line class="cls-5" x1="14.28" y1="17.69" x2="10.31" y2="17.69"/><line class="cls-5" x1="14.26" y1="80.87" x2="10.29" y2="80.87"/><line class="cls-5" x1="72.37" y1="17.69" x2="72.37" y2="81.06"/><line class="cls-5" x1="68.43" y1="17.69" x2="72.37" y2="17.69"/><line class="cls-5" x1="68.44" y1="80.96" x2="72.39" y2="80.96"/><rect class="cls-2" x="32.25" y="22.28" width="18.01" height="18.05"/><rect class="cls-3" x="32.29" y="58.29" width="17.88" height="18.05"/><rect class="cls-6" x="14.24" y="22.2" width="18.01" height="18.05"/><rect class="cls-6" x="50.22" y="58.16" width="18.01" height="18.22"/><circle class="cls-5" cx="105.52" cy="19.92" r="7.55"/><circle class="cls-7" cx="105.52" cy="19.92" r="7.55"/><path d="M106.39,15.88V22.7c0,.29.08.47.23.55a2.16,2.16,0,0,0,.86.14v.16h-3.17v-.17a1.74,1.74,0,0,0,.89-.19c.14-.1.21-.31.21-.65v-5.2a1.08,1.08,0,0,0-.07-.41.3.3,0,0,0-.29-.14,1.29,1.29,0,0,0-.38.08l-.44.17v-.15l2.06-1.05h.07Z" transform="translate(-0.32)"/><path d="M166.67,23.42a35.6,35.6,0,0,0,2.79-3.13,3.31,3.31,0,0,0,.74-1.95,1.67,1.67,0,0,0-.45-1.26,1.49,1.49,0,0,0-1.07-.43,1.54,1.54,0,0,0-1.25.56,3.33,3.33,0,0,0-.5.94l-.24,0a2.89,2.89,0,0,1,.95-1.79,2.35,2.35,0,0,1,1.44-.5,2,2,0,0,1,1.53.6,2,2,0,0,1,.59,1.46,2.9,2.9,0,0,1-.64,1.77,37.13,37.13,0,0,1-2.75,3h2.57a1.09,1.09,0,0,0,1.25-.75l.15.06-.62,1.57h-4.49Z" transform="translate(-0.32)"/><circle class="cls-5" cx="168.89" cy="19.92" r="7.55"/><circle class="cls-7" cx="168.89" cy="19.92" r="7.55"/><circle class="cls-5" cx="137.27" cy="68.76" r="7.55"/><circle class="cls-7" cx="137.27" cy="68.76" r="7.55"/><path d="M136.42,71.74a1.77,1.77,0,0,0,.86.32,1.34,1.34,0,0,0,1.17-.53,2,2,0,0,0,.38-1.15,1.79,1.79,0,0,0-.31-1.06,2,2,0,0,0-1.76-.77h-.3v-.14a5.05,5.05,0,0,0,1.42-.75,1.37,1.37,0,0,0,.51-1.11,1.1,1.1,0,0,0-.4-.93,1.53,1.53,0,0,0-2,.13,3.66,3.66,0,0,0-.56.77l-.17,0a2.67,2.67,0,0,1,.83-1.37,2.15,2.15,0,0,1,1.42-.51,1.79,1.79,0,0,1,1.33.48,1.5,1.5,0,0,1,.08,2.08,3.26,3.26,0,0,1-.68.58,2.64,2.64,0,0,1,.86.54,2,2,0,0,1,.61,1.49,2.57,2.57,0,0,1-.83,1.88,3.27,3.27,0,0,1-2.39.82,1.66,1.66,0,0,1-1-.21.54.54,0,0,1-.28-.44.49.49,0,0,1,.09-.28.35.35,0,0,1,.3-.13A1.62,1.62,0,0,1,136.42,71.74Z" transform="translate(-0.32)"/><line class="cls-8" x1="165.36" y1="26.63" x2="143.5" y2="59.95"/><path class="cls-4" d="M144.19,59.39l1.58,0v.06l-1.94,1.36-1.69,1.65.84-2.2.48-2.33,0,0Z" transform="translate(-0.32)"/><path class="cls-8" d="M100.3,14.35a8.36,8.36,0,0,1-2.47-6,8,8,0,1,1,16,0,8,8,0,0,1-.93,3.67" transform="translate(-0.32)"/><path class="cls-4" d="M113.22,11.45l1.58.09v.06l-2,1.32-1.73,1.61c.3-.73.6-1.46.89-2.19l.53-2.31,0,0Z" transform="translate(-0.32)"/><line class="cls-8" x1="161.39" y1="19.82" x2="116.05" y2="19.96"/><path class="cls-4" d="M117,20l.83,1.35-.05,0-2.21-.87-2.3-.5,2.3-.51,2.2-.88,0,0Z" transform="translate(-0.32)"/><line class="cls-8" x1="132.85" y1="62.39" x2="110.88" y2="28.95"/><path class="cls-4" d="M111.57,29.51l-.68,1.43,0,0-.48-2.32-.84-2.21L111.21,28l1.94,1.36v.05Z" transform="translate(-0.32)"/><path class="cls-8" d="M132.05,74.14a8.4,8.4,0,0,0-2.47,6,8,8,0,1,0,16,0,8.22,8.22,0,0,0-.92-3.68" transform="translate(-0.32)"/><path class="cls-4" d="M145,77l-.65,1.45,0,0-.53-2.31L142.85,74l1.73,1.61,2,1.32v0Z" transform="translate(-0.32)"/></svg>