<svg id="_Layer_" data-name="&lt;Layer&gt;" xmlns="http://www.w3.org/2000/svg" viewBox="0 0 177.85 88.6"><defs><style>.cls-1{fill:#ccc;}.cls-1,.cls-2,.cls-5{opacity:0.2;}.cls-2{fill:#41aa96;}.cls-3,.cls-5{fill:#069;}.cls-4,.cls-6{fill:none;stroke-width:0.25px;}.cls-4{stroke:#300;}.cls-6{stroke:#069;stroke-miterlimit:10;}</style></defs><rect class="cls-1" x="14.25" y="22.24" width="54.03" height="54.24"/><rect class="cls-2" x="14.21" y="22.19" width="18.16" height="18.45"/><rect class="cls-2" x="50.13" y="58.62" width="18.16" height="17.85"/><rect class="cls-2" x="32.21" y="40.45" width="18.07" height="18.27"/><path class="cls-3" d="M24.33,9.23v6.34a.54.54,0,0,0,.22.51,2.35,2.35,0,0,0,.8.13v.14H22.41V16.2a1.61,1.61,0,0,0,.82-.18c.13-.09.19-.29.19-.61V10.59a.94.94,0,0,0-.06-.38c0-.09-.13-.13-.27-.13a1.07,1.07,0,0,0-.35.07l-.41.16v-.14l1.92-1h.06Z" transform="translate(-0.32)"/><path class="cls-3" d="M39.39,16.23A36.81,36.81,0,0,0,42,13.33a3.1,3.1,0,0,0,.68-1.81,1.54,1.54,0,0,0-.42-1.17,1.37,1.37,0,0,0-1-.41,1.47,1.47,0,0,0-1.16.52,3.19,3.19,0,0,0-.47.88l-.22,0a2.74,2.74,0,0,1,.88-1.67,2.2,2.2,0,0,1,1.34-.46A1.88,1.88,0,0,1,43,9.72a1.84,1.84,0,0,1,.55,1.36A2.73,2.73,0,0,1,43,12.72a35.05,35.05,0,0,1-2.56,2.82h2.39a1.51,1.51,0,0,0,.71-.12,1.59,1.59,0,0,0,.46-.58l.13.06-.58,1.45H39.39Z" transform="translate(-0.32)"/><path class="cls-3" d="M58.9,15.75a1.6,1.6,0,0,0,.8.3,1.26,1.26,0,0,0,1.09-.5,1.82,1.82,0,0,0,.35-1.07,1.71,1.71,0,0,0-.29-1,1.82,1.82,0,0,0-1.63-.72h-.28v-.14A4.42,4.42,0,0,0,60.24,12a1.26,1.26,0,0,0,.48-1,1,1,0,0,0-.38-.87,1.37,1.37,0,0,0-.86-.29,1.42,1.42,0,0,0-1,.42,3,3,0,0,0-.51.71l-.17,0a2.41,2.41,0,0,1,.78-1.27,2,2,0,0,1,1.31-.47,1.67,1.67,0,0,1,1.24.44,1.39,1.39,0,0,1,.43,1,1.41,1.41,0,0,1-.36.93,3.08,3.08,0,0,1-.63.53,2.89,2.89,0,0,1,.8.5,1.85,1.85,0,0,1,.57,1.39,2.38,2.38,0,0,1-.78,1.75,3.07,3.07,0,0,1-2.21.75,1.54,1.54,0,0,1-.9-.19.51.51,0,0,1-.26-.41.5.5,0,0,1,.08-.26.32.32,0,0,1,.28-.12A1.55,1.55,0,0,1,58.9,15.75Z" transform="translate(-0.32)"/><path class="cls-3" d="M3.18,27.4v6.34a.54.54,0,0,0,.22.51,2.35,2.35,0,0,0,.8.13v.14H1.26v-.15a1.75,1.75,0,0,0,.82-.17.74.74,0,0,0,.19-.61V28.76a.94.94,0,0,0-.06-.38c0-.09-.13-.13-.27-.13a1.13,1.13,0,0,0-.35.08l-.41.15v-.14l1.92-1h.06Z" transform="translate(-0.32)"/><path class="cls-3" d="M.32,52.19a36.81,36.81,0,0,0,2.59-2.9,3.1,3.1,0,0,0,.68-1.81,1.56,1.56,0,0,0-.42-1.18,1.4,1.4,0,0,0-1-.4A1.44,1.44,0,0,0,1,46.42a3.19,3.19,0,0,0-.47.88l-.22,0a2.74,2.74,0,0,1,.88-1.66,2.21,2.21,0,0,1,1.34-.47A1.89,1.89,0,0,1,4,45.68,1.84,1.84,0,0,1,4.52,47a2.75,2.75,0,0,1-.59,1.64A35.05,35.05,0,0,1,1.37,51.5H3.76a1.51,1.51,0,0,0,.71-.12,1.69,1.69,0,0,0,.45-.58l.14.06-.58,1.45H.32Z" transform="translate(-0.32)"/><path class="cls-3" d="M1.59,70.06a1.56,1.56,0,0,0,.8.3,1.25,1.25,0,0,0,1.08-.49,1.79,1.79,0,0,0,.36-1.07,1.69,1.69,0,0,0-.29-1A1.83,1.83,0,0,0,1.9,67.1H1.77l-.14,0V67a4.55,4.55,0,0,0,1.31-.69,1.27,1.27,0,0,0,.48-1A1.05,1.05,0,0,0,3,64.39a1.34,1.34,0,0,0-.86-.3,1.39,1.39,0,0,0-1,.43,3.24,3.24,0,0,0-.52.7l-.16,0a2.41,2.41,0,0,1,.78-1.27,2,2,0,0,1,1.31-.47,1.66,1.66,0,0,1,1.23.43,1.42,1.42,0,0,1,.44,1,1.39,1.39,0,0,1-.36.92,3.74,3.74,0,0,1-.63.54,2.67,2.67,0,0,1,.8.5,1.85,1.85,0,0,1,.57,1.39A2.34,2.34,0,0,1,3.84,70a3,3,0,0,1-2.22.76,1.62,1.62,0,0,1-.9-.19.53.53,0,0,1-.26-.41.43.43,0,0,1,.09-.26.31.31,0,0,1,.28-.13A1.59,1.59,0,0,1,1.59,70.06Z" transform="translate(-0.32)"/><path d="M42.25,27.4v6.34c0,.27.08.44.22.51a2.35,2.35,0,0,0,.8.13v.14H40.33v-.15a1.75,1.75,0,0,0,.82-.17.74.74,0,0,0,.19-.61V28.76a.94.94,0,0,0-.06-.38c0-.09-.13-.13-.27-.13a1.13,1.13,0,0,0-.35.08l-.41.15v-.14l1.92-1h.06Z" transform="translate(-0.32)"/><path d="M61.71,28.61a5,5,0,0,1,.53,2.33,6,6,0,0,1-.32,2,2.18,2.18,0,0,1-2.11,1.72,2,2,0,0,1-1.69-.93,4.58,4.58,0,0,1-.71-2.7,5.33,5.33,0,0,1,.47-2.32,2.09,2.09,0,0,1,2-1.32A2,2,0,0,1,61.71,28.61Zm-.79,4.88a7.93,7.93,0,0,0,.29-2.43A9.8,9.8,0,0,0,61,29c-.22-.94-.62-1.4-1.21-1.4s-1,.48-1.22,1.44a10,10,0,0,0-.17,2A7.93,7.93,0,0,0,58.62,33c.22.89.64,1.33,1.25,1.33A1.06,1.06,0,0,0,60.92,33.49Z" transform="translate(-0.32)"/><path d="M61.71,46.4a5,5,0,0,1,.53,2.33,6.06,6.06,0,0,1-.32,2,2.18,2.18,0,0,1-2.11,1.72,2,2,0,0,1-1.69-.93,4.63,4.63,0,0,1-.71-2.71,5.32,5.32,0,0,1,.47-2.31,2.09,2.09,0,0,1,2-1.32A2,2,0,0,1,61.71,46.4Zm-.79,4.88a7.93,7.93,0,0,0,.29-2.43,9.73,9.73,0,0,0-.17-2c-.22-.94-.62-1.41-1.21-1.41s-1,.48-1.22,1.45a10,10,0,0,0-.17,2,7.93,7.93,0,0,0,.18,1.89c.22.88.64,1.32,1.25,1.32A1.06,1.06,0,0,0,60.92,51.28Z" transform="translate(-0.32)"/><path d="M24.33,27.4v6.34c0,.27.08.44.22.51a2.35,2.35,0,0,0,.8.13v.14H22.41v-.15a1.75,1.75,0,0,0,.82-.17.74.74,0,0,0,.19-.61V28.76a.94.94,0,0,0-.06-.38c0-.09-.13-.13-.27-.13a1.13,1.13,0,0,0-.35.08l-.41.15v-.14l1.92-1h.06Z" transform="translate(-0.32)"/><path d="M25.55,46.4a5,5,0,0,1,.53,2.33,5.8,5.8,0,0,1-.33,2,2.17,2.17,0,0,1-2.11,1.72A2,2,0,0,1,22,51.48a4.63,4.63,0,0,1-.71-2.71,5.18,5.18,0,0,1,.48-2.31,2.08,2.08,0,0,1,2-1.32A2,2,0,0,1,25.55,46.4Zm-.79,4.88A8,8,0,0,0,25,48.85a9.08,9.08,0,0,0-.17-2c-.21-.94-.62-1.41-1.21-1.41s-1,.48-1.21,1.45a9.3,9.3,0,0,0-.17,2,8.58,8.58,0,0,0,.17,1.89c.23.88.64,1.32,1.25,1.32A1.07,1.07,0,0,0,24.76,51.28Z" transform="translate(-0.32)"/><path d="M42.25,45.19v6.33c0,.27.08.44.22.51a2.07,2.07,0,0,0,.8.14v.14H40.33v-.16a1.63,1.63,0,0,0,.82-.17c.13-.09.19-.29.19-.61V46.55a.91.91,0,0,0-.06-.38c0-.09-.13-.13-.27-.13a1.07,1.07,0,0,0-.35.07l-.41.16v-.14l1.92-1h.06Z" transform="translate(-0.32)"/><path d="M24.33,63.55v6.33c0,.27.08.44.22.51a1.93,1.93,0,0,0,.8.13v.15H22.41v-.16a1.63,1.63,0,0,0,.82-.17c.13-.09.19-.3.19-.61V64.91a.91.91,0,0,0-.06-.38c0-.09-.13-.13-.27-.13a1.07,1.07,0,0,0-.35.07l-.41.16v-.15l1.92-1h.06Z" transform="translate(-0.32)"/><path d="M43.47,64.76A5,5,0,0,1,44,67.09a5.7,5.7,0,0,1-.33,2,2.18,2.18,0,0,1-2.11,1.73,2,2,0,0,1-1.69-.93,4.63,4.63,0,0,1-.71-2.71,5.15,5.15,0,0,1,.48-2.31,2.08,2.08,0,0,1,2-1.32A2,2,0,0,1,43.47,64.76Zm-.79,4.87A7.91,7.91,0,0,0,43,67.21a9.08,9.08,0,0,0-.17-2c-.21-.94-.62-1.41-1.21-1.41s-1,.48-1.21,1.45a9.3,9.3,0,0,0-.17,2,8.58,8.58,0,0,0,.17,1.89c.23.88.64,1.32,1.25,1.32A1.07,1.07,0,0,0,42.68,69.63Z" transform="translate(-0.32)"/><path d="M60.5,63.55v6.33q0,.41.21.51a2,2,0,0,0,.8.13v.15H58.57v-.16a1.6,1.6,0,0,0,.82-.17.73.73,0,0,0,.2-.61V64.91a.75.75,0,0,0-.07-.38c0-.09-.13-.13-.27-.13a1.12,1.12,0,0,0-.35.07,3.7,3.7,0,0,0-.4.16v-.15l1.91-1h.06Z" transform="translate(-0.32)"/><line class="cls-4" x1="10.31" y1="17.74" x2="10.31" y2="81.02"/><line class="cls-4" x1="14.28" y1="17.74" x2="10.31" y2="17.74"/><line class="cls-4" x1="14.26" y1="80.92" x2="10.29" y2="80.92"/><line class="cls-4" x1="72.37" y1="17.74" x2="72.37" y2="81.11"/><line class="cls-4" x1="68.43" y1="17.74" x2="72.37" y2="17.74"/><line class="cls-4" x1="68.44" y1="81.01" x2="72.39" y2="81.01"/><circle class="cls-4" cx="105.52" cy="19.95" r="7.55"/><circle class="cls-5" cx="105.52" cy="19.95" r="7.55"/><path d="M106.39,15.92v6.82c0,.29.08.47.23.55a2.37,2.37,0,0,0,.86.14v.15h-3.17v-.16a2,2,0,0,0,.89-.19q.21-.15.21-.66V17.38a1,1,0,0,0-.07-.41c0-.1-.14-.14-.29-.14a1,1,0,0,0-.38.08,4.49,4.49,0,0,0-.44.17v-.16l2.06-1.05h.07S106.38,15.91,106.39,15.92Z" transform="translate(-0.32)"/><path d="M166.67,23.46a38.82,38.82,0,0,0,2.79-3.13,3.33,3.33,0,0,0,.74-1.95,1.67,1.67,0,0,0-.45-1.26,1.5,1.5,0,0,0-1.07-.44,1.57,1.57,0,0,0-1.25.56,3.41,3.41,0,0,0-.5,1l-.24-.05a2.86,2.86,0,0,1,.95-1.79,2.3,2.3,0,0,1,1.44-.51,2,2,0,0,1,2.12,2.06,2.86,2.86,0,0,1-.64,1.77,38.48,38.48,0,0,1-2.75,3h2.57a1.54,1.54,0,0,0,.76-.13,1.68,1.68,0,0,0,.49-.63l.15.07-.62,1.56h-4.49Z" transform="translate(-0.32)"/><circle class="cls-4" cx="168.89" cy="19.96" r="7.55"/><circle class="cls-5" cx="168.89" cy="19.96" r="7.55"/><circle class="cls-4" cx="137.21" cy="68.8" r="7.55"/><circle class="cls-5" cx="137.21" cy="68.8" r="7.55"/><path d="M136.37,71.77a1.64,1.64,0,0,0,.86.33,1.37,1.37,0,0,0,1.17-.53,2,2,0,0,0,.38-1.16,1.91,1.91,0,0,0-.31-1.06,2,2,0,0,0-1.76-.77h-.3v-.14a4.85,4.85,0,0,0,1.41-.75,1.35,1.35,0,0,0,.52-1.11,1.11,1.11,0,0,0-.41-.93,1.42,1.42,0,0,0-.93-.32,1.55,1.55,0,0,0-1.09.45,3.57,3.57,0,0,0-.55.76l-.18,0a2.59,2.59,0,0,1,.84-1.36,2.15,2.15,0,0,1,1.41-.51,1.8,1.8,0,0,1,1.33.47,1.53,1.53,0,0,1,.47,1.09,1.5,1.5,0,0,1-.39,1,3.63,3.63,0,0,1-.68.58,2.81,2.81,0,0,1,.87.54,2,2,0,0,1,.61,1.49,2.54,2.54,0,0,1-.84,1.88,3.29,3.29,0,0,1-2.39.81,1.78,1.78,0,0,1-1-.2.58.58,0,0,1-.27-.44.49.49,0,0,1,.09-.28.34.34,0,0,1,.3-.14A1.72,1.72,0,0,1,136.37,71.77Z" transform="translate(-0.32)"/><line class="cls-6" x1="132.95" y1="62.37" x2="111.62" y2="28.54"/><path class="cls-3" d="M112.29,29.11l-.7,1.41,0,0-.44-2.33c-.26-.74-.53-1.48-.8-2.22L112,27.63l1.92,1.4v0Z" transform="translate(-0.32)"/><line class="cls-6" x1="113.03" y1="19.83" x2="158.52" y2="19.83"/><path class="cls-3" d="M158.17,19.83l-.82-1.35,0,0,2.2.88,2.31.5-2.31.51-2.2.87,0,0Z" transform="translate(-0.32)"/><path class="cls-6" d="M100.3,14.39a8.38,8.38,0,0,1-2.47-6,8,8,0,1,1,15.08,3.68" transform="translate(-0.32)"/><path class="cls-3" d="M113.22,11.49l1.58.09v.05l-2,1.32-1.73,1.61c.3-.73.6-1.45.89-2.18l.53-2.31,0,0Z" transform="translate(-0.32)"/><path class="cls-6" d="M132,74.25a8.32,8.32,0,0,0-2.47,6,8,8,0,1,0,15.08-3.67" transform="translate(-0.32)"/><path class="cls-3" d="M144.91,77.14l-.64,1.45-.05,0-.53-2.31-.89-2.19,1.72,1.61,2,1.32v0Z" transform="translate(-0.32)"/><path class="cls-6" d="M163.67,14.35a8.36,8.36,0,0,1-2.47-6,8,8,0,1,1,15.09,3.67" transform="translate(-0.32)"/><path class="cls-3" d="M176.59,11.45l1.58.09v.06l-2,1.32-1.73,1.61c.3-.73.6-1.46.89-2.19l.53-2.31.05,0Z" transform="translate(-0.32)"/></svg>