<svg id="_Layer_" data-name="&lt;Layer&gt;" xmlns="http://www.w3.org/2000/svg" viewBox="0 0 177.96 88.45"><defs><style>.cls-1{fill:#ccc;}.cls-1,.cls-2,.cls-5{opacity:0.2;}.cls-2{fill:#41aa96;}.cls-3,.cls-5{fill:#069;}.cls-4,.cls-6{fill:none;stroke-width:0.25px;}.cls-4{stroke:#300;}.cls-6{stroke:#069;stroke-miterlimit:10;}</style></defs><rect class="cls-1" x="14.25" y="22.16" width="54.03" height="54.24"/><rect class="cls-2" x="50.22" y="58.14" width="18.01" height="18.22"/><rect class="cls-2" x="32.29" y="22.25" width="35.98" height="35.82"/><path class="cls-3" d="M24.33,9.16v6.33c0,.27.08.44.22.51a2.12,2.12,0,0,0,.8.13v.15H22.41v-.16a1.75,1.75,0,0,0,.82-.17.74.74,0,0,0,.19-.61V10.51a1,1,0,0,0-.06-.38.28.28,0,0,0-.27-.13,1.13,1.13,0,0,0-.35.08l-.41.16v-.15l1.92-1h.06A.08.08,0,0,1,24.33,9.16Z" transform="translate(-0.32)"/><path class="cls-3" d="M39.39,16.16A34.74,34.74,0,0,0,42,13.25a3.1,3.1,0,0,0,.68-1.81,1.55,1.55,0,0,0-.42-1.17,1.36,1.36,0,0,0-1-.4,1.44,1.44,0,0,0-1.16.52,3,3,0,0,0-.47.88l-.22,0a2.71,2.71,0,0,1,.88-1.66,2.21,2.21,0,0,1,1.34-.47A1.88,1.88,0,0,1,43,9.64,1.86,1.86,0,0,1,43.59,11,2.76,2.76,0,0,1,43,12.65a37.44,37.44,0,0,1-2.56,2.81h2.39a1.51,1.51,0,0,0,.71-.12,1.59,1.59,0,0,0,.46-.58l.13.06-.58,1.46H39.39Z" transform="translate(-0.32)"/><path class="cls-3" d="M58.9,15.67a1.6,1.6,0,0,0,.8.3,1.28,1.28,0,0,0,1.09-.49,1.85,1.85,0,0,0,.35-1.08,1.71,1.71,0,0,0-.29-1,1.84,1.84,0,0,0-1.63-.71h-.28v-.13a4.42,4.42,0,0,0,1.31-.7,1.26,1.26,0,0,0,.48-1,1,1,0,0,0-.38-.86,1.33,1.33,0,0,0-.86-.3,1.42,1.42,0,0,0-1,.42,3.27,3.27,0,0,0-.51.71l-.17,0a2.38,2.38,0,0,1,.78-1.26,2,2,0,0,1,1.31-.48,1.67,1.67,0,0,1,1.24.44,1.39,1.39,0,0,1,.07,1.94,3.07,3.07,0,0,1-.63.54,2.67,2.67,0,0,1,.8.5,1.82,1.82,0,0,1,.57,1.38,2.37,2.37,0,0,1-.78,1.75,3.07,3.07,0,0,1-2.21.75,1.54,1.54,0,0,1-.9-.19.49.49,0,0,1-.26-.4.56.56,0,0,1,.08-.27.32.32,0,0,1,.28-.12A1.55,1.55,0,0,1,58.9,15.67Z" transform="translate(-0.32)"/><path class="cls-3" d="M3.18,27.33v6.33c0,.27.08.44.22.51a2.12,2.12,0,0,0,.8.13v.15H1.26v-.16a1.75,1.75,0,0,0,.82-.17c.13-.09.19-.3.19-.61V28.68a1,1,0,0,0-.06-.38.28.28,0,0,0-.27-.13,1.13,1.13,0,0,0-.35.08l-.41.16v-.15l1.92-1h.06Z" transform="translate(-0.32)"/><path class="cls-3" d="M.32,52.11a33.46,33.46,0,0,0,2.59-2.9,3.1,3.1,0,0,0,.68-1.81,1.55,1.55,0,0,0-.42-1.17,1.37,1.37,0,0,0-1-.41A1.45,1.45,0,0,0,1,46.35a3,3,0,0,0-.47.88l-.22,0a2.77,2.77,0,0,1,.88-1.67,2.2,2.2,0,0,1,1.34-.46A1.88,1.88,0,0,1,4,45.6,1.84,1.84,0,0,1,4.52,47a2.71,2.71,0,0,1-.59,1.64,35.05,35.05,0,0,1-2.56,2.82H3.76a1.51,1.51,0,0,0,.71-.12,1.59,1.59,0,0,0,.45-.58l.14.06-.58,1.45H.32Z" transform="translate(-0.32)"/><path class="cls-3" d="M1.59,70a1.56,1.56,0,0,0,.8.3,1.25,1.25,0,0,0,1.08-.5,1.77,1.77,0,0,0,.36-1.07,1.71,1.71,0,0,0-.29-1A1.83,1.83,0,0,0,1.9,67H1.63V66.9a4.55,4.55,0,0,0,1.31-.69,1.26,1.26,0,0,0,.48-1A1.05,1.05,0,0,0,3,64.31,1.39,1.39,0,0,0,2.17,64a1.42,1.42,0,0,0-1,.42,3.34,3.34,0,0,0-.52.71l-.16,0a2.35,2.35,0,0,1,.78-1.26,1.94,1.94,0,0,1,1.31-.48,1.67,1.67,0,0,1,1.23.44,1.38,1.38,0,0,1,.08,1.94,3.33,3.33,0,0,1-.63.53,2.89,2.89,0,0,1,.8.5,1.85,1.85,0,0,1,.57,1.39,2.38,2.38,0,0,1-.78,1.75,3.07,3.07,0,0,1-2.22.75,1.54,1.54,0,0,1-.9-.19.52.52,0,0,1-.26-.41.45.45,0,0,1,.09-.26.32.32,0,0,1,.28-.12A1.59,1.59,0,0,1,1.59,70Z" transform="translate(-0.32)"/><path d="M42.25,27.33v6.33c0,.27.08.44.22.51a1.93,1.93,0,0,0,.8.13v.15H40.33v-.16a1.75,1.75,0,0,0,.82-.17c.13-.09.19-.3.19-.61V28.68a1,1,0,0,0-.06-.38.28.28,0,0,0-.27-.13,1.13,1.13,0,0,0-.35.08l-.41.16v-.15l1.92-1h.06Z" transform="translate(-0.32)"/><path d="M60.5,27.33v6.33q0,.41.21.51a2.18,2.18,0,0,0,.81.13v.15h-3v-.16a1.72,1.72,0,0,0,.82-.17.73.73,0,0,0,.2-.61V28.68a.81.81,0,0,0-.07-.38.28.28,0,0,0-.27-.13,1.2,1.2,0,0,0-.35.08,3.7,3.7,0,0,0-.4.16v-.15l1.91-1h.06Z" transform="translate(-0.32)"/><path d="M60.5,45.11v6.34q0,.4.21.51a2.18,2.18,0,0,0,.81.13v.15h-3v-.16a1.72,1.72,0,0,0,.82-.17.74.74,0,0,0,.2-.61V46.47a.78.78,0,0,0-.07-.38c0-.09-.13-.13-.27-.13a1.2,1.2,0,0,0-.35.08,3.7,3.7,0,0,0-.4.16v-.15l1.91-1h.06S60.49,45.11,60.5,45.11Z" transform="translate(-0.32)"/><path d="M25.55,28.53a5,5,0,0,1,.53,2.34,5.7,5.7,0,0,1-.33,1.95,2.18,2.18,0,0,1-2.11,1.73A2,2,0,0,1,22,33.61a4.58,4.58,0,0,1-.71-2.7,5.12,5.12,0,0,1,.48-2.31,2.08,2.08,0,0,1,2-1.32A2,2,0,0,1,25.55,28.53Zm-.79,4.88A8,8,0,0,0,25,31a9.24,9.24,0,0,0-.17-2c-.21-.93-.62-1.4-1.21-1.4s-1,.48-1.21,1.45a9.3,9.3,0,0,0-.17,2,8.58,8.58,0,0,0,.17,1.89c.23.88.64,1.32,1.25,1.32A1.07,1.07,0,0,0,24.76,33.41Z" transform="translate(-0.32)"/><path d="M25.55,46.32a5,5,0,0,1,.53,2.34,5.7,5.7,0,0,1-.33,2,2.17,2.17,0,0,1-2.11,1.72A2,2,0,0,1,22,51.4a4.58,4.58,0,0,1-.71-2.7,5.19,5.19,0,0,1,.48-2.32,2.08,2.08,0,0,1,2-1.32A2,2,0,0,1,25.55,46.32Zm-.79,4.88A8,8,0,0,0,25,48.77a9.2,9.2,0,0,0-.17-2c-.21-.94-.62-1.4-1.21-1.4s-1,.48-1.21,1.44a9.36,9.36,0,0,0-.17,2,8.58,8.58,0,0,0,.17,1.89c.23.89.64,1.33,1.25,1.33A1.07,1.07,0,0,0,24.76,51.2Z" transform="translate(-0.32)"/><path d="M42.25,45.11v6.34c0,.27.08.44.22.51a2.12,2.12,0,0,0,.8.13v.15H40.33v-.16a1.75,1.75,0,0,0,.82-.17.74.74,0,0,0,.19-.61V46.47a.94.94,0,0,0-.06-.38c0-.09-.13-.13-.27-.13a1.13,1.13,0,0,0-.35.08l-.41.16v-.15l1.92-1h.06Z" transform="translate(-0.32)"/><path d="M25.55,64.68A5,5,0,0,1,26.08,67a5.72,5.72,0,0,1-.33,2,2.17,2.17,0,0,1-2.11,1.72A2,2,0,0,1,22,69.76a4.58,4.58,0,0,1-.71-2.7,5.19,5.19,0,0,1,.48-2.32,2.08,2.08,0,0,1,2-1.32A2,2,0,0,1,25.55,64.68Zm-.79,4.88A8,8,0,0,0,25,67.13a9.14,9.14,0,0,0-.17-2c-.21-.94-.62-1.41-1.21-1.41s-1,.49-1.21,1.45a9.36,9.36,0,0,0-.17,2,8.58,8.58,0,0,0,.17,1.89c.23.89.64,1.33,1.25,1.33A1.07,1.07,0,0,0,24.76,69.56Z" transform="translate(-0.32)"/><path d="M43.47,64.68A5,5,0,0,1,44,67a5.76,5.76,0,0,1-.33,2,2.17,2.17,0,0,1-2.11,1.72,2,2,0,0,1-1.69-.93,4.61,4.61,0,0,1-.71-2.71,5.18,5.18,0,0,1,.48-2.31,2.08,2.08,0,0,1,2-1.32A2,2,0,0,1,43.47,64.68Zm-.79,4.88A8,8,0,0,0,43,67.13a9.14,9.14,0,0,0-.17-2c-.21-.94-.62-1.41-1.21-1.41s-1,.49-1.21,1.45a9.36,9.36,0,0,0-.17,2,8.58,8.58,0,0,0,.17,1.89c.23.88.64,1.33,1.25,1.33A1.07,1.07,0,0,0,42.68,69.56Z" transform="translate(-0.32)"/><path d="M60.5,63.47v6.34a.54.54,0,0,0,.21.51,2.4,2.4,0,0,0,.8.13v.14H58.57v-.15a1.72,1.72,0,0,0,.82-.17.74.74,0,0,0,.2-.61V64.83a.78.78,0,0,0-.07-.38c0-.09-.13-.13-.27-.13a.94.94,0,0,0-.35.08l-.4.15v-.14l1.91-1h.06Z" transform="translate(-0.32)"/><line class="cls-4" x1="10.31" y1="17.66" x2="10.31" y2="80.94"/><line class="cls-4" x1="14.28" y1="17.66" x2="10.31" y2="17.66"/><line class="cls-4" x1="14.26" y1="80.84" x2="10.29" y2="80.84"/><line class="cls-4" x1="72.37" y1="17.66" x2="72.37" y2="81.04"/><line class="cls-4" x1="68.43" y1="17.66" x2="72.37" y2="17.66"/><line class="cls-4" x1="68.44" y1="80.93" x2="72.39" y2="80.93"/><circle class="cls-4" cx="105.52" cy="19.7" r="7.55"/><circle class="cls-5" cx="105.52" cy="19.7" r="7.55"/><path d="M106.39,15.66v6.82c0,.29.08.47.23.55a2.16,2.16,0,0,0,.86.14v.16h-3.17v-.17a1.88,1.88,0,0,0,.89-.18q.21-.15.21-.66v-5.2a1.08,1.08,0,0,0-.07-.41.3.3,0,0,0-.29-.14,1.29,1.29,0,0,0-.38.08l-.44.18v-.16l2.06-1.05h.07Z" transform="translate(-0.32)"/><path d="M166.78,23.2a35.6,35.6,0,0,0,2.79-3.13,3.26,3.26,0,0,0,.73-1.94,1.68,1.68,0,0,0-.45-1.27,1.46,1.46,0,0,0-1.07-.43,1.52,1.52,0,0,0-1.24.56,3,3,0,0,0-.51,1l-.24-.05a3,3,0,0,1,1-1.8,2.4,2.4,0,0,1,1.44-.5,2.06,2.06,0,0,1,1.54.6,2,2,0,0,1,.58,1.46,3,3,0,0,1-.63,1.77,36,36,0,0,1-2.76,3h2.58a1.72,1.72,0,0,0,.76-.12,1.78,1.78,0,0,0,.49-.63l.15.07-.63,1.56h-4.48Z" transform="translate(-0.32)"/><circle class="cls-4" cx="168.99" cy="19.7" r="7.55"/><circle class="cls-5" cx="168.99" cy="19.7" r="7.55"/><circle class="cls-4" cx="137.34" cy="68.54" r="7.55"/><circle class="cls-5" cx="137.34" cy="68.54" r="7.55"/><path d="M136.5,71.52a1.61,1.61,0,0,0,.86.32,1.31,1.31,0,0,0,1.16-.53,1.93,1.93,0,0,0,.08-2.21,2,2,0,0,0-1.77-.77h-.14l-.15,0V68.2a4.74,4.74,0,0,0,1.41-.75,1.38,1.38,0,0,0,.52-1.11,1.14,1.14,0,0,0-.41-.93,1.48,1.48,0,0,0-.93-.32,1.51,1.51,0,0,0-1.09.46,3.57,3.57,0,0,0-.55.76l-.18,0a2.55,2.55,0,0,1,.84-1.36,2.15,2.15,0,0,1,1.41-.51,1.76,1.76,0,0,1,1.33.47,1.49,1.49,0,0,1,.47,1.09,1.52,1.52,0,0,1-.39,1,3.3,3.3,0,0,1-.68.57,3.25,3.25,0,0,1,.87.54,2,2,0,0,1,.61,1.49,2.56,2.56,0,0,1-.84,1.89,3.31,3.31,0,0,1-2.39.81,1.68,1.68,0,0,1-1-.21.55.55,0,0,1-.27-.44.51.51,0,0,1,.09-.28.33.33,0,0,1,.3-.13A1.76,1.76,0,0,1,136.5,71.52Z" transform="translate(-0.32)"/><line class="cls-6" x1="165.36" y1="26.41" x2="143.5" y2="59.74"/><path class="cls-3" d="M144.19,59.17l1.58.06v.05l-1.94,1.36-1.69,1.65.84-2.2.48-2.32,0,0Z" transform="translate(-0.32)"/><line class="cls-6" x1="112.99" y1="19.75" x2="158.46" y2="19.61"/><path class="cls-3" d="M158.1,19.61l-.83-1.35,0,0,2.21.87,2.3.5-2.3.51-2.2.89-.05,0Z" transform="translate(-0.32)"/><line class="cls-6" x1="109.2" y1="26.18" x2="131.33" y2="59.78"/><path class="cls-3" d="M131.28,59.22l.67-1.43.06,0,.48,2.32.84,2.2-1.69-1.64-1.94-1.36v0Z" transform="translate(-0.32)"/><path class="cls-6" d="M163.78,14.35a8.32,8.32,0,0,1-2.47-6,8,8,0,1,1,15.08,3.67" transform="translate(-0.32)"/><path class="cls-3" d="M176.69,11.45l1.58.09v.06l-2,1.32-1.72,1.61.89-2.19L176,10l0,0Z" transform="translate(-0.32)"/><path class="cls-6" d="M132.12,74.09a8.38,8.38,0,0,0-2.47,6,8,8,0,1,0,15.09-3.68" transform="translate(-0.32)"/><path class="cls-3" d="M145,77l-.64,1.44-.05,0-.53-2.31c-.3-.72-.6-1.45-.89-2.18l1.72,1.61,2,1.32v.05Z" transform="translate(-0.32)"/></svg>